# xmcd
#
# Track frame offsets:
# 150
# 35296
# 56618
# 89347
# 107863
# 148778
# 190556
# 223950
# 244696
# 266541
# 291989
#
# Disc length: 4345 seconds
#
# Revision: 0
# Processed by: cddbd v1.4PL0 Copyright (c) Steve Scherf et al.
# Submitted via: Audion 3.0.2 (http://www.panic.com/audion/)
#
DISCID=a610f70b
DTITLE=mix - 2002 dance allan
DYEAR=1900
DGENRE=
TTITLE0=s
TTITLE1=s
TTITLE2=s
TTITLE3=s
TTITLE4=s
TTITLE5=s
TTITLE6=s
TTITLE7=s
TTITLE8=s
TTITLE9=s
TTITLE10=s
EXTD=
EXTT0=
EXTT1=
EXTT2=
EXTT3=
EXTT4=
EXTT5=
EXTT6=
EXTT7=
EXTT8=
EXTT9=
EXTT10=
PLAYORDER=
